<svg xmlns="http://www.w3.org/2000/svg" viewBox="0 0 164 60"><defs><style>.a{fill:#fff;}</style></defs><title>Artboard 1</title><path class="a" d="M163,33.7,152.7,45l10.9,14.6h-2.7l-9.8-13.2-3.2,3.5v9.7h-2.1V33.7h2.1V47.1h.1l12.4-13.4ZM122.3,59.6h-2V33.7h2.1L136.8,56h.1V33.7h2V59.6h-2.1L122.4,37.3h-.1ZM105.6,36.2h-.1l-4.6,13.2h9.3ZM97.4,59.6H95.2l9.3-25.9h2.1l9.3,25.9h-2.2l-2.9-8.5H100.3ZM76.8,47.2V57.7h6.1c5,0,7.4-1.8,7.4-5.2s-2.7-5.3-6.4-5.3Zm0-11.6v9.7h5.6c3.9,0,6.4-1.5,6.4-5s-2.1-4.7-5.6-4.7Zm-2.1,24V33.7h8.8c4.6,0,7.4,2.4,7.4,6.3a5.7,5.7,0,0,1-4.3,5.9h0a6.2,6.2,0,0,1,5.8,6.5c0,4.3-3.2,7.1-8.7,7.1ZM57,42.1H50v-.4c0-4.9,4.2-8.5,10.1-8.5s9.6,3,9.6,7.5c0,2.8-1.2,4.8-4.7,8.3l-4.4,4.5v.3h9.5v5.8H50.5V55l9.1-9c1.9-1.9,2.7-3.1,2.7-4.5a2.5,2.5,0,0,0-2.6-2.6A2.6,2.6,0,0,0,57,41.6Zm-7.9-8.5L40.4,45l9,14.6H40.6l-5.7-9.7L33,52.3v7.3H25.4v-26H33V44h.3l7.9-10.4ZM33.3,9.3,47.1,27.2,59.3,15.6,72.2,26.4l3.2-3.9L59,8.9,47.7,19.8,33,.7-.1,50.4l4.2,2.8Z"/></svg>